<svg xmlns="http://www.w3.org/2000/svg" xmlns:xlink="http://www.w3.org/1999/xlink" id="Capa_1" data-name="Capa 1" viewBox="0 0 443 72.9"><defs><style>.cls-1{fill:none;}.cls-2{clip-path:url(#clip-path);}.cls-3,.cls-4{fill:#fff;}.cls-3{fill-rule:evenodd;}.cls-5{clip-path:url(#clip-path-2);}</style><clipPath id="clip-path" transform="translate(-239.79 -636.82)"><rect class="cls-1" x="345.78" y="651.78" width="337.01" height="56.8"></rect></clipPath><clipPath id="clip-path-2" transform="translate(-239.79 -636.82)"><rect class="cls-1" x="239.79" y="636.82" width="104.87" height="72.9"></rect></clipPath></defs><g class="cls-2"><path class="cls-3" d="M514.76,669.81c-.55.31-1,.51-1.21.63s-1.35.53-3.3,1.26a6.48,6.48,0,0,0-3.13,2.11,4.92,4.92,0,0,0-.89,2.83,4,4,0,0,0,1,2.83,3.34,3.34,0,0,0,2.62,1.07,4.62,4.62,0,0,0,4-2.09,5,5,0,0,0,.92-2.87Zm.15,10.23a10.24,10.24,0,0,1-2.43,2.22A8.66,8.66,0,0,1,508,683.4a5.64,5.64,0,0,1-4.11-1.49,6.34,6.34,0,0,1-1.91-4.84,6,6,0,0,1,2.72-5.39,11.7,11.7,0,0,1,2.27-1.2c.71-.26,2.32-.78,4.84-1.54a5.11,5.11,0,0,0,2.24-1.17,2.61,2.61,0,0,0,.67-1.9,2.8,2.8,0,0,0-1.12-2.29,4.59,4.59,0,0,0-2.93-.89,7.28,7.28,0,0,0-2.77.5,14.42,14.42,0,0,0-3,1.85l-.7-2.82a20.74,20.74,0,0,1,3.89-1.45,16.48,16.48,0,0,1,3.78-.4,9,9,0,0,1,5.29,1.34,4.36,4.36,0,0,1,1.87,3.78v13.14c0,1.27.43,1.91,1.3,1.91a2.92,2.92,0,0,0,1.46-.68v2.44a6.16,6.16,0,0,1-3.27,1.1,3.48,3.48,0,0,1-2.44-.75,4.89,4.89,0,0,1-1.23-2.61m-20.47-21.7,2.88-6.56H501l-4.45,6.56Zm-1,2.55h4.66a5.48,5.48,0,0,0-.16,1.37v19.38a5.7,5.7,0,0,0,.16,1.37h-4.66a5.59,5.59,0,0,0,.16-1.37V662.26a5.21,5.21,0,0,0-.16-1.37m-13.73,0h4.43v2.82a4.56,4.56,0,0,1,1.81-2.46,8.32,8.32,0,0,1,3.71-.88v3.4l-.69,0q-4.77,0-4.77,5.21v12.68a5.85,5.85,0,0,0,.16,1.37h-4.65a6.26,6.26,0,0,0,.16-1.37V662.26a5.85,5.85,0,0,0-.16-1.37m-19.25,8.32h10.58a16.08,16.08,0,0,0-.54-3.07,5.82,5.82,0,0,0-1.92-2.84,4.14,4.14,0,0,0-2.69-.9,4.49,4.49,0,0,0-3.67,1.79,9.28,9.28,0,0,0-1.76,5m14.14,12.32a18.57,18.57,0,0,1-3.78,1.47,16,16,0,0,1-3.82.4c-3.77,0-6.63-1.1-8.59-3.32-1.74-2-2.61-4.62-2.61-8,0-3.76,1-6.69,3-8.77a9.62,9.62,0,0,1,7.32-2.91,8.71,8.71,0,0,1,6.89,2.79c1.65,1.87,2.53,4.53,2.66,8H460.36a17.15,17.15,0,0,0,.8,5.82c1.06,2.89,3.2,4.33,6.46,4.33a9.69,9.69,0,0,0,6.37-2.57ZM447.06,683v-3a9,9,0,0,1-2.28,2.33,8.14,8.14,0,0,1-4.39,1.1,7.16,7.16,0,0,1-5.45-2,6.65,6.65,0,0,1-1.58-4.79V662.24a5.43,5.43,0,0,0-.16-1.35h4.66a4.93,4.93,0,0,0-.17,1.35v13.88a4.47,4.47,0,0,0,.85,2.84,4.16,4.16,0,0,0,3.37,1.35,5.22,5.22,0,0,0,3.67-1.3,4.39,4.39,0,0,0,1.4-3.37v-13.4a5.74,5.74,0,0,0-.16-1.35h4.66a4.67,4.67,0,0,0-.17,1.35v19.4a6,6,0,0,0,.17,1.37ZM419,662.63a4.44,4.44,0,0,0-4,2.06,11.46,11.46,0,0,0,.11,10.62,4.46,4.46,0,0,0,3.89,1.93,4.4,4.4,0,0,0,4-2,10,10,0,0,0,1.33-5.4,8.77,8.77,0,0,0-1.38-5.28,4.68,4.68,0,0,0-3.89-1.92m-8.86,22.47-1.08-3.19,4.75-3.47a10.43,10.43,0,0,1-3-2.31,8.73,8.73,0,0,1-1.83-5.88q0-4.82,2.78-7.43a9.7,9.7,0,0,1,6.91-2.43c.47,0,1.22,0,2.26.08a3.08,3.08,0,0,0,1.51-1.35,5.29,5.29,0,0,0,.67-2.36h4.13a5,5,0,0,1-.88,2.36,9.67,9.67,0,0,1-2.55,2,8.44,8.44,0,0,1,3,2.3A10.13,10.13,0,0,1,429,670a8.57,8.57,0,0,1-7.48,9.2c-.45.07-1.36.17-2.74.31a5.1,5.1,0,0,0-2.24.71l-4,2.46a41.4,41.4,0,0,1,8.67-1.37,15.47,15.47,0,0,1,5.92,1,4.62,4.62,0,0,1,2,1.46,3.35,3.35,0,0,1,.73,2.09,3.74,3.74,0,0,1-2.39,3.4,15.08,15.08,0,0,1-6.67,1.21,38.28,38.28,0,0,1-10.82-1.92v-.82a34.35,34.35,0,0,0,8.59,1.31,10.19,10.19,0,0,0,4.17-.73c1.09-.49,1.62-1.15,1.62-2s-.57-1.41-1.71-1.86a12.63,12.63,0,0,0-4.62-.69,27.41,27.41,0,0,0-7.8,1.32m-14.77-22.88a4.37,4.37,0,0,0-2.24.63,4.83,4.83,0,0,0-1.72,1.67,13.74,13.74,0,0,0-1.68,7.28,14.2,14.2,0,0,0,1.7,7.47,4.86,4.86,0,0,0,1.71,1.66,4.32,4.32,0,0,0,4.46,0,4.86,4.86,0,0,0,1.71-1.66,16.93,16.93,0,0,0,0-14.79,4.5,4.5,0,0,0-3.94-2.26m0-1.85a9.4,9.4,0,0,1,7.66,3.32,12.52,12.52,0,0,1,2.57,8.22c0,3.62-1,6.48-2.95,8.57a9.48,9.48,0,0,1-7.24,2.92,9.2,9.2,0,0,1-7.49-3.19,13.05,13.05,0,0,1-2.74-8.63,11.84,11.84,0,0,1,2.7-8,9.54,9.54,0,0,1,7.49-3.18m-22,.52h4.44v2.82a4.46,4.46,0,0,1,1.81-2.46,8.27,8.27,0,0,1,3.7-.88v3.4l-.68,0q-4.78,0-4.78,5.21v12.68A5.35,5.35,0,0,0,378,683h-4.66a6.26,6.26,0,0,0,.16-1.37V662.26a5.85,5.85,0,0,0-.16-1.37m-22.66,19.69h3.84a8.3,8.3,0,0,0,6.06-2.24,9.76,9.76,0,0,0,2.3-3.65,18.13,18.13,0,0,0,1-6.12q0-6.63-4.2-9.69a9.74,9.74,0,0,0-5.94-1.85h-3.1Zm-4.91-25.9h8.73a16.28,16.28,0,0,1,8.23,2,11.28,11.28,0,0,1,4.65,4.93,15.45,15.45,0,0,1,1.58,7,14.76,14.76,0,0,1-3.15,9.71A12.5,12.5,0,0,1,355.74,683h-10a4.94,4.94,0,0,0,.18-1.37V656a4.5,4.5,0,0,0-.18-1.35" transform="translate(-239.79 -636.82)"></path><path class="cls-3" d="M672.58,662.22a4.46,4.46,0,0,0-2.25.63,4.88,4.88,0,0,0-1.71,1.67,13.74,13.74,0,0,0-1.68,7.28,14.17,14.17,0,0,0,1.7,7.47,4.86,4.86,0,0,0,1.71,1.66,4.32,4.32,0,0,0,4.46,0,4.86,4.86,0,0,0,1.71-1.66,16.93,16.93,0,0,0,0-14.79,4.48,4.48,0,0,0-3.94-2.26m0-1.85a9.4,9.4,0,0,1,7.66,3.32,12.52,12.52,0,0,1,2.57,8.22c0,3.62-1,6.48-2.95,8.57a9.48,9.48,0,0,1-7.24,2.92,9.15,9.15,0,0,1-7.48-3.19,13,13,0,0,1-2.75-8.63,11.84,11.84,0,0,1,2.7-8,9.54,9.54,0,0,1,7.49-3.18m-23.4,2.26a4.46,4.46,0,0,0-4,2.06,11.5,11.5,0,0,0,.12,10.62,4.46,4.46,0,0,0,3.88,1.93,4.41,4.41,0,0,0,4-2,10,10,0,0,0,1.33-5.4,8.84,8.84,0,0,0-1.38-5.28,4.66,4.66,0,0,0-3.89-1.92M640.3,685.1l-1.08-3.19,4.75-3.47a10.43,10.43,0,0,1-3-2.31,8.73,8.73,0,0,1-1.83-5.88c0-3.22.93-5.69,2.78-7.43a9.7,9.7,0,0,1,6.91-2.43c.47,0,1.22,0,2.26.08a3.08,3.08,0,0,0,1.51-1.35,5.25,5.25,0,0,0,.67-2.36h4.13a4.75,4.75,0,0,1-.89,2.36,9.58,9.58,0,0,1-2.54,2,8.44,8.44,0,0,1,3,2.3,10.15,10.15,0,0,1,2.08,6.53,9.27,9.27,0,0,1-2.37,6.63,9.15,9.15,0,0,1-5.12,2.57c-.45.07-1.36.17-2.74.31a5.1,5.1,0,0,0-2.24.71l-4,2.46a41.37,41.37,0,0,1,8.68-1.37,15.45,15.45,0,0,1,5.91,1,4.7,4.7,0,0,1,2,1.46,3.35,3.35,0,0,1,.73,2.09,3.72,3.72,0,0,1-2.38,3.39,15,15,0,0,1-6.69,1.22,38.27,38.27,0,0,1-10.81-1.92v-.83a34,34,0,0,0,8.59,1.32,10.19,10.19,0,0,0,4.17-.73c1.08-.49,1.62-1.15,1.62-2s-.57-1.41-1.71-1.86a12.4,12.4,0,0,0-4.62-.7,27.46,27.46,0,0,0-7.8,1.33m-24-24.21h4.41V664a8.14,8.14,0,0,1,2-2.28,8.27,8.27,0,0,1,4.84-1.33,7.08,7.08,0,0,1,5.72,2.3,6.21,6.21,0,0,1,1.25,4.11v14.86a6.48,6.48,0,0,0,.16,1.37h-4.65a5.09,5.09,0,0,0,.16-1.37V667.43a3.85,3.85,0,0,0-1.1-2.93,4.42,4.42,0,0,0-3.14-1,4.86,4.86,0,0,0-3.81,1.41,5.49,5.49,0,0,0-1.36,3.83v12.93A5.59,5.59,0,0,0,621,683h-4.66a5.72,5.72,0,0,0,.16-1.37v-19.4a5.94,5.94,0,0,0-.16-1.35m-19.25,8.32h10.58a15.33,15.33,0,0,0-.54-3.07,5.8,5.8,0,0,0-1.91-2.84,4.19,4.19,0,0,0-2.7-.9,4.5,4.5,0,0,0-3.67,1.79,9.37,9.37,0,0,0-1.76,5m14.15,12.32a19.08,19.08,0,0,1-3.79,1.47,16,16,0,0,1-3.82.4c-3.77,0-6.63-1.1-8.58-3.32-1.74-2-2.61-4.62-2.61-8,0-3.76,1-6.69,3-8.77a9.62,9.62,0,0,1,7.32-2.91,8.71,8.71,0,0,1,6.89,2.79c1.65,1.87,2.53,4.53,2.66,8H597a17.1,17.1,0,0,0,.81,5.81q1.58,4.34,6.45,4.34a9.68,9.68,0,0,0,6.37-2.58Zm-30.63-20.64h4.44v2.82a4.46,4.46,0,0,1,1.81-2.46,8.32,8.32,0,0,1,3.71-.88v3.4l-.69,0c-3.18,0-4.78,1.74-4.78,5.21v12.68a5.35,5.35,0,0,0,.17,1.37h-4.66a5.7,5.7,0,0,0,.16-1.37V662.26a5.37,5.37,0,0,0-.16-1.37m-10,8.92c-.55.31-1,.51-1.21.63s-1.35.53-3.3,1.26a6.45,6.45,0,0,0-3.12,2.11,4.86,4.86,0,0,0-.9,2.83,4,4,0,0,0,1,2.83,3.37,3.37,0,0,0,2.63,1.07,4.63,4.63,0,0,0,4-2.09,5.06,5.06,0,0,0,.91-2.87Zm.15,10.23a10.24,10.24,0,0,1-2.43,2.22,8.63,8.63,0,0,1-4.44,1.14,5.66,5.66,0,0,1-4.11-1.49,6.36,6.36,0,0,1-1.91-4.84,6,6,0,0,1,2.72-5.39,11.7,11.7,0,0,1,2.27-1.2c.71-.26,2.33-.78,4.85-1.54a5.16,5.16,0,0,0,2.23-1.17,2.62,2.62,0,0,0,.67-1.9,2.77,2.77,0,0,0-1.12-2.29,4.58,4.58,0,0,0-2.92-.89,7.24,7.24,0,0,0-2.77.5,14.16,14.16,0,0,0-3,1.85l-.71-2.82a20.8,20.8,0,0,1,3.9-1.45,16.33,16.33,0,0,1,3.77-.4,9,9,0,0,1,5.3,1.34,4.38,4.38,0,0,1,1.86,3.78v13.14c0,1.27.43,1.91,1.31,1.91a2.89,2.89,0,0,0,1.45-.68v2.44a6.16,6.16,0,0,1-3.27,1.1,3.51,3.51,0,0,1-2.44-.75,4.89,4.89,0,0,1-1.23-2.61M529,661.2l-3.25,20.56a.76.76,0,0,0,0,.21c0,.11,0,.45.08,1h-2.57a12.45,12.45,0,0,0,.36-1.31l4-25.79a1.82,1.82,0,0,0,0-.42c0-.2,0-.47,0-.81h4.27a4,4,0,0,0,.19,1.08l7.53,22,7.62-22.1a2.62,2.62,0,0,0,.14-.75v-.25h4.27c0,.24,0,.45,0,.61s0,.27,0,.39l3.76,26.08a11,11,0,0,0,.33,1.25h-5.06a3.46,3.46,0,0,0,.08-.65,3.37,3.37,0,0,0,0-.52l-3-21.11-7.22,21a3.19,3.19,0,0,0-.21,1V683h-4a1.68,1.68,0,0,0,0-.27,2.85,2.85,0,0,0-.17-.81Z" transform="translate(-239.79 -636.82)"></path><path class="cls-3" d="M555.68,699.54h1.39v.89a1.41,1.41,0,0,1,.58-.78,2.71,2.71,0,0,1,1.15-.28v1.07h-.21c-1,0-1.5.55-1.5,1.64v4a2,2,0,0,0,0,.43h-1.46a1.54,1.54,0,0,0,.05-.43V700a1.45,1.45,0,0,0-.05-.43m-4.28.7a1.5,1.5,0,0,0-.7.19,1.39,1.39,0,0,0-.54.48,1.93,1.93,0,0,0-.32.82,6.74,6.74,0,0,0-.1,1.35,6.36,6.36,0,0,0,.12,1.4,2.47,2.47,0,0,0,.39.89,1.32,1.32,0,0,0,1.06.52,1.28,1.28,0,0,0,1.18-.74,4.58,4.58,0,0,0,.41-2.15,4.44,4.44,0,0,0-.39-2.11,1.2,1.2,0,0,0-.46-.46,1.45,1.45,0,0,0-.65-.19m-1.61,5.48v2.43a1.41,1.41,0,0,0,.05.43h-1.47a1.54,1.54,0,0,0,0-.43V700a1.58,1.58,0,0,0,0-.43h1.39v1a2.33,2.33,0,0,1,2-1.16,2.2,2.2,0,0,1,1.76.82,3.11,3.11,0,0,1,.6,1.14,6.11,6.11,0,0,1,.18,1.59,4.4,4.4,0,0,1-.78,2.8,2.32,2.32,0,0,1-.85.66,2.58,2.58,0,0,1-1.09.24,2.23,2.23,0,0,1-1.81-.9m-11.08-5.39a2.39,2.39,0,0,1,2-1,2.49,2.49,0,0,1,1.13.23,1.92,1.92,0,0,1,.74.73,3.24,3.24,0,0,1,1-.74,2.78,2.78,0,0,1,1.13-.22,1.75,1.75,0,0,1,2,2v4.74a1.54,1.54,0,0,0,.06.43h-1.47a1.54,1.54,0,0,0,.06-.43v-4.51a1.46,1.46,0,0,0-.19-.82,1.12,1.12,0,0,0-1-.39,1.55,1.55,0,0,0-1.07.35,1.31,1.31,0,0,0-.38,1v4.35a1.44,1.44,0,0,0,.06.43h-1.47a1.44,1.44,0,0,0,.06-.43v-4.51a1.32,1.32,0,0,0-.2-.81,1.14,1.14,0,0,0-1-.4,1.53,1.53,0,0,0-1,.35,1.11,1.11,0,0,0-.4.91v4.46a2,2,0,0,0,0,.43h-1.46a2,2,0,0,0,0-.43V700a1.73,1.73,0,0,0,0-.42h1.39Zm-6-.37a1.39,1.39,0,0,0-.7.19,1.52,1.52,0,0,0-.54.53A4.36,4.36,0,0,0,531,703a4.52,4.52,0,0,0,.53,2.35,1.47,1.47,0,0,0,.53.52,1.34,1.34,0,0,0,1.41,0,1.47,1.47,0,0,0,.53-.52,5.28,5.28,0,0,0,0-4.65,1.4,1.4,0,0,0-1.24-.71m0-.59a2.92,2.92,0,0,1,2.4,1A3.91,3.91,0,0,1,536,703a3.75,3.75,0,0,1-.93,2.7,2.93,2.93,0,0,1-2.27.92,2.85,2.85,0,0,1-2.34-1,4.09,4.09,0,0,1-.87-2.72,3.73,3.73,0,0,1,.85-2.52,3,3,0,0,1,2.35-1m-4.08,6.75a9.61,9.61,0,0,1-1.1.42,3.44,3.44,0,0,1-.86.08,2.88,2.88,0,0,1-2.28-.91,3.83,3.83,0,0,1-.86-2.62,3.73,3.73,0,0,1,1.09-2.89,3.29,3.29,0,0,1,2.33-.83,5.52,5.52,0,0,1,1.68.3v1a4.21,4.21,0,0,0-.83-.53,2,2,0,0,0-.76-.14,1.67,1.67,0,0,0-1.48.79A3.78,3.78,0,0,0,525,703a4.25,4.25,0,0,0,.43,2,1.65,1.65,0,0,0,1.54.92,1.83,1.83,0,0,0,.82-.17,3.31,3.31,0,0,0,.85-.57ZM517.43,705l1.15.48-1.43,2.62-.86-.36Zm-5.21-5a1.33,1.33,0,0,0-.69.19,1.55,1.55,0,0,0-.55.53,4.36,4.36,0,0,0-.53,2.29,4.42,4.42,0,0,0,.54,2.35,1.35,1.35,0,0,0,.54.52,1.31,1.31,0,0,0,1.39,0,1.49,1.49,0,0,0,.54-.52,5.36,5.36,0,0,0,0-4.65,1.4,1.4,0,0,0-1.24-.71m0-.59a2.92,2.92,0,0,1,2.4,1,3.9,3.9,0,0,1,.8,2.58,3.75,3.75,0,0,1-.92,2.7,2.93,2.93,0,0,1-2.27.92,2.89,2.89,0,0,1-2.35-1,4.14,4.14,0,0,1-.86-2.72,3.68,3.68,0,0,1,.85-2.52,3,3,0,0,1,2.35-1m-9,6.66.24-.95a4.62,4.62,0,0,0,1,.68,2.4,2.4,0,0,0,1,.19,1.32,1.32,0,0,0,1-.37,1.09,1.09,0,0,0,.33-.79.82.82,0,0,0-.32-.7,5.63,5.63,0,0,0-1.36-.68,3,3,0,0,1-1.39-.92,1.93,1.93,0,0,1,.6-2.71,2.89,2.89,0,0,1,1.55-.41,5.24,5.24,0,0,1,2.07.47l-.23.86a3,3,0,0,0-1.71-.66,1.32,1.32,0,0,0-.9.29,1,1,0,0,0-.38.78.75.75,0,0,0,.28.62,4.42,4.42,0,0,0,1.19.58,4,4,0,0,1,1.5.88,1.67,1.67,0,0,1,.42,1.21,2,2,0,0,1-.82,1.71,3,3,0,0,1-1.84.51,4.66,4.66,0,0,1-2.24-.59m-4-6.07a1.4,1.4,0,0,0-.71.19,1.52,1.52,0,0,0-.54.53,4.36,4.36,0,0,0-.52,2.29,4.42,4.42,0,0,0,.53,2.35,1.47,1.47,0,0,0,.53.52,1.32,1.32,0,0,0,.71.2,1.25,1.25,0,0,0,.69-.2,1.42,1.42,0,0,0,.54-.52,5.28,5.28,0,0,0,0-4.65,1.39,1.39,0,0,0-1.23-.71m0-.59a2.93,2.93,0,0,1,2.4,1,3.91,3.91,0,0,1,.81,2.58,3.75,3.75,0,0,1-.93,2.7,2.93,2.93,0,0,1-2.27.92,2.89,2.89,0,0,1-2.35-1,4.14,4.14,0,0,1-.86-2.72,3.73,3.73,0,0,1,.85-2.52,3,3,0,0,1,2.35-1m-6.13.17h1.46a2,2,0,0,0-.05.43v6.1a2,2,0,0,0,.05.43H493.1a1.49,1.49,0,0,0,0-.43V700a1.45,1.45,0,0,0,0-.43m.75-1.88a1.07,1.07,0,0,1,.63.16.6.6,0,0,1,0,.93,1,1,0,0,1-.61.17q-.87,0-.87-.63a.56.56,0,0,1,.23-.46,1,1,0,0,1,.62-.17m-2.43-.77a1.75,1.75,0,0,0-.05.43v8.75a2,2,0,0,0,.05.43H490a2,2,0,0,0,.05-.43v-8.75a1.88,1.88,0,0,0-.05-.43Zm-4.58,5.46-.38.19-1,.4a2,2,0,0,0-1,.67,1.49,1.49,0,0,0-.28.89,1.25,1.25,0,0,0,.31.89,1.06,1.06,0,0,0,.82.33,1.45,1.45,0,0,0,1.26-.66,1.52,1.52,0,0,0,.28-.9Zm.05,3.21a3.41,3.41,0,0,1-.76.71,2.81,2.81,0,0,1-1.39.35,1.74,1.74,0,0,1-1.29-.47,2,2,0,0,1-.61-1.52,1.89,1.89,0,0,1,.86-1.69,3.31,3.31,0,0,1,.71-.38c.22-.09.73-.25,1.53-.49a1.58,1.58,0,0,0,.69-.37.8.8,0,0,0,.21-.59.9.9,0,0,0-.35-.73,1.46,1.46,0,0,0-.92-.27,2.31,2.31,0,0,0-.86.15,4.62,4.62,0,0,0-.94.58l-.22-.88a6,6,0,0,1,1.22-.46,5.22,5.22,0,0,1,1.19-.13,2.77,2.77,0,0,1,1.65.43,1.35,1.35,0,0,1,.59,1.19v4.13c0,.4.13.6.41.6a.82.82,0,0,0,.45-.22v.78a1.9,1.9,0,0,1-1,.34,1.06,1.06,0,0,1-.76-.23,1.6,1.6,0,0,1-.39-.83M480,705l1.88-5a1.18,1.18,0,0,0,.08-.38h.79a2,2,0,0,0-.2.38l-2.31,6.19a1.76,1.76,0,0,0-.09.35l0,0H479a3.56,3.56,0,0,0-.09-.39l-2.27-6.19a2.93,2.93,0,0,0-.16-.38h1.58a1.06,1.06,0,0,0,.07.38Zm-10.65-5a1.4,1.4,0,0,0-.71.19,1.61,1.61,0,0,0-.54.53,4.36,4.36,0,0,0-.52,2.29,4.42,4.42,0,0,0,.53,2.35,1.35,1.35,0,0,0,.54.52,1.31,1.31,0,0,0,1.39,0,1.35,1.35,0,0,0,.54-.52,5.36,5.36,0,0,0,0-4.65,1.41,1.41,0,0,0-1.23-.71m0-.59a3,3,0,0,1,2.4,1,3.9,3.9,0,0,1,.8,2.58,3.75,3.75,0,0,1-.92,2.7,2.93,2.93,0,0,1-2.27.92,2.87,2.87,0,0,1-2.35-1,4.14,4.14,0,0,1-.86-2.72,3.68,3.68,0,0,1,.85-2.52,3,3,0,0,1,2.35-1m-4.55-2.48a1.75,1.75,0,0,0-.05.43v8.75a2,2,0,0,0,.05.43h-1.46a2,2,0,0,0,0-.43v-8.75a1.88,1.88,0,0,0,0-.43Zm-12.52,2.65h1.39v1a2.89,2.89,0,0,1,.63-.72,2.64,2.64,0,0,1,1.51-.42,2.24,2.24,0,0,1,1.8.73,2,2,0,0,1,.39,1.29v4.68a2.1,2.1,0,0,0,.05.43h-1.46a1.3,1.3,0,0,0,0-.43V701.6a1.19,1.19,0,0,0-.34-.92,1.38,1.38,0,0,0-1-.33,1.53,1.53,0,0,0-1.19.44,1.72,1.72,0,0,0-.43,1.21v4.07a2,2,0,0,0,.05.43h-1.46a1.45,1.45,0,0,0,0-.43V700a1.47,1.47,0,0,0,0-.42m-4.55.42a1.37,1.37,0,0,0-.7.19,1.45,1.45,0,0,0-.54.53,4.36,4.36,0,0,0-.53,2.29,4.52,4.52,0,0,0,.53,2.35,1.42,1.42,0,0,0,.54.52,1.29,1.29,0,0,0,.7.2,1.31,1.31,0,0,0,.7-.2,1.49,1.49,0,0,0,.54-.52,5.36,5.36,0,0,0,0-4.65,1.41,1.41,0,0,0-1.24-.71m0-.59a2.92,2.92,0,0,1,2.4,1,3.91,3.91,0,0,1,.81,2.58,3.79,3.79,0,0,1-.92,2.7,3,3,0,0,1-2.27.92,2.86,2.86,0,0,1-2.35-1,4.09,4.09,0,0,1-.86-2.72,3.72,3.72,0,0,1,.84-2.52,3,3,0,0,1,2.35-1m-4.08,6.75a9.61,9.61,0,0,1-1.1.42,3.44,3.44,0,0,1-.86.08,2.88,2.88,0,0,1-2.28-.91,3.82,3.82,0,0,1-.85-2.62,3.73,3.73,0,0,1,1.08-2.89,3.3,3.3,0,0,1,2.34-.83,5.52,5.52,0,0,1,1.67.3v1a3.94,3.94,0,0,0-.83-.53A2,2,0,0,0,442,700a1.68,1.68,0,0,0-1.48.79A3.78,3.78,0,0,0,440,703a4.25,4.25,0,0,0,.42,2,1.65,1.65,0,0,0,1.54.92,1.9,1.9,0,0,0,.83-.17,3.46,3.46,0,0,0,.84-.57ZM429.11,706l.24-.95a4.62,4.62,0,0,0,1,.68,2.4,2.4,0,0,0,1,.19,1.32,1.32,0,0,0,1-.37,1.09,1.09,0,0,0,.33-.79.84.84,0,0,0-.31-.7,5.9,5.9,0,0,0-1.38-.68,3,3,0,0,1-1.38-.92,1.93,1.93,0,0,1,.6-2.71,2.89,2.89,0,0,1,1.55-.41,5.28,5.28,0,0,1,2.07.47l-.23.86a3,3,0,0,0-1.71-.66,1.32,1.32,0,0,0-.9.29.93.93,0,0,0-.38.78.75.75,0,0,0,.28.62,4.42,4.42,0,0,0,1.19.58,4.09,4.09,0,0,1,1.5.88,1.71,1.71,0,0,1,.42,1.21,2,2,0,0,1-.82,1.71,3,3,0,0,1-1.84.51,4.66,4.66,0,0,1-2.24-.59m-4-6.07a1.39,1.39,0,0,0-.7.19,1.61,1.61,0,0,0-.54.53,4.36,4.36,0,0,0-.53,2.29,4.42,4.42,0,0,0,.54,2.35,1.39,1.39,0,0,0,.53.52,1.31,1.31,0,0,0,.7.2,1.26,1.26,0,0,0,.7-.2,1.35,1.35,0,0,0,.54-.52,5.36,5.36,0,0,0,0-4.65,1.4,1.4,0,0,0-1.24-.71m0-.59a2.93,2.93,0,0,1,2.4,1,3.9,3.9,0,0,1,.8,2.58,3.75,3.75,0,0,1-.92,2.7,2.93,2.93,0,0,1-2.27.92,2.89,2.89,0,0,1-2.35-1,4.14,4.14,0,0,1-.86-2.72,3.73,3.73,0,0,1,.85-2.52,3,3,0,0,1,2.35-1m-7.44.75a1.31,1.31,0,0,0-.95.39A3.57,3.57,0,0,0,416,703c0,1.83.51,2.75,1.54,2.75a1.31,1.31,0,0,0,1.21-.72,4.38,4.38,0,0,0,.42-2.14c0-1.83-.52-2.76-1.56-2.77m1.51,5.37a3.5,3.5,0,0,1-.64.7,2.16,2.16,0,0,1-1.39.43,2.1,2.1,0,0,1-1.86-1,4.76,4.76,0,0,1-.66-2.64,4.44,4.44,0,0,1,.75-2.69,2.28,2.28,0,0,1,2-.94,2.32,2.32,0,0,1,1,.22,2.2,2.2,0,0,1,.79.69v-3a1.88,1.88,0,0,0-.05-.43h1.46a2,2,0,0,0,0,.43v8.75a2,2,0,0,0,0,.43h-1.39Zm-7.48-6h1.46a1.49,1.49,0,0,0-.05.43v6.1a1.54,1.54,0,0,0,.05.43h-1.46a2,2,0,0,0,0-.43V700a1.88,1.88,0,0,0,0-.43m.75-1.88a1,1,0,0,1,.62.16.59.59,0,0,1,0,.93.94.94,0,0,1-.61.17c-.58,0-.86-.21-.86-.63a.56.56,0,0,1,.23-.46,1,1,0,0,1,.62-.17m-4.47,2.53h-1v-.65h1v-1.35l1.38-.15c0,.26,0,.43,0,.51v1h1.12v.65H409.3v5c0,.41.17.62.51.62a1.36,1.36,0,0,0,.63-.21v.72a2.7,2.7,0,0,1-1.17.27,1.36,1.36,0,0,1-1-.33,1.46,1.46,0,0,1-.32-1Zm-6.16,2h3.32a4.91,4.91,0,0,0-.17-1,1.89,1.89,0,0,0-.6-.9,1.36,1.36,0,0,0-.85-.28,1.38,1.38,0,0,0-1.14.57,2.88,2.88,0,0,0-.56,1.58m4.44,3.87a6,6,0,0,1-1.18.47,5.41,5.41,0,0,1-1.2.12,3.38,3.38,0,0,1-2.7-1,3.67,3.67,0,0,1-.82-2.53,3.88,3.88,0,0,1,.94-2.76,3,3,0,0,1,2.3-.92,2.76,2.76,0,0,1,2.16.88,4,4,0,0,1,.83,2.52h-4.81a5.68,5.68,0,0,0,.25,1.83,2,2,0,0,0,2,1.36,3,3,0,0,0,2-.81Zm-15.28-5.7a2.42,2.42,0,0,1,2-1,2.52,2.52,0,0,1,1.13.23,2,2,0,0,1,.74.73,3.24,3.24,0,0,1,1-.74,2.74,2.74,0,0,1,1.13-.22,1.75,1.75,0,0,1,2,2v4.74a2,2,0,0,0,0,.43H397.5a1.54,1.54,0,0,0,.06-.43v-4.51a1.38,1.38,0,0,0-.19-.82,1.12,1.12,0,0,0-1-.39,1.55,1.55,0,0,0-1.07.35,1.35,1.35,0,0,0-.38,1v4.35a1.88,1.88,0,0,0,.05.43h-1.46a1.45,1.45,0,0,0,.05-.43v-4.51a1.32,1.32,0,0,0-.19-.81,1.15,1.15,0,0,0-1-.4,1.57,1.57,0,0,0-1.05.35,1.14,1.14,0,0,0-.39.91v4.46a2,2,0,0,0,0,.43h-1.47a1.54,1.54,0,0,0,.06-.43V700a1.33,1.33,0,0,0-.06-.42h1.39ZM385,700a1.4,1.4,0,0,0-.71.19,1.61,1.61,0,0,0-.54.53,4.36,4.36,0,0,0-.52,2.29,4.42,4.42,0,0,0,.53,2.35,1.47,1.47,0,0,0,.53.52,1.34,1.34,0,0,0,1.41,0,1.47,1.47,0,0,0,.53-.52,5.36,5.36,0,0,0,0-4.65A1.39,1.39,0,0,0,385,700m0-.59a2.92,2.92,0,0,1,2.4,1,3.9,3.9,0,0,1,.8,2.58,3.75,3.75,0,0,1-.92,2.7,2.93,2.93,0,0,1-2.27.92,2.89,2.89,0,0,1-2.35-1,4.14,4.14,0,0,1-.86-2.72,3.73,3.73,0,0,1,.85-2.52,3,3,0,0,1,2.35-1m-6.9.17h1.39v.89a1.35,1.35,0,0,1,.57-.78,2.76,2.76,0,0,1,1.16-.28v1.07H381c-1,0-1.5.55-1.5,1.64v4a2,2,0,0,0,.05.43H378.1a2,2,0,0,0,0-.43V700a1.88,1.88,0,0,0,0-.43m-4.29.7a1.62,1.62,0,0,0-1.24.67,2.07,2.07,0,0,0-.32.82,7.76,7.76,0,0,0-.09,1.35,6.47,6.47,0,0,0,.11,1.4,2.32,2.32,0,0,0,.4.89,1.32,1.32,0,0,0,2.24-.22,4.6,4.6,0,0,0,.4-2.15,4.44,4.44,0,0,0-.39-2.11,1.2,1.2,0,0,0-.46-.46,1.45,1.45,0,0,0-.65-.19m-1.61,5.48v2.43a1.41,1.41,0,0,0,.05.43h-1.47a1.54,1.54,0,0,0,.06-.43V700a1.59,1.59,0,0,0-.06-.43h1.4v1a2.32,2.32,0,0,1,2-1.16,2.22,2.22,0,0,1,1.76.82,3.25,3.25,0,0,1,.59,1.14,5.68,5.68,0,0,1,.19,1.59,4.4,4.4,0,0,1-.78,2.8,2.36,2.36,0,0,1-.86.66,2.51,2.51,0,0,1-1.08.24,2.24,2.24,0,0,1-1.82-.9m-11.08-5.39a2.39,2.39,0,0,1,2-1,2.49,2.49,0,0,1,1.13.23,1.94,1.94,0,0,1,.75.73,3.09,3.09,0,0,1,1-.74,2.78,2.78,0,0,1,1.13-.22,1.75,1.75,0,0,1,2,2v4.74a1.54,1.54,0,0,0,.06.43h-1.46a2,2,0,0,0,.05-.43v-4.51a1.47,1.47,0,0,0-.18-.82,1.13,1.13,0,0,0-1-.39,1.51,1.51,0,0,0-1.07.35,1.31,1.31,0,0,0-.38,1v4.35a1.88,1.88,0,0,0,.05.43H363.7a1.88,1.88,0,0,0,.05-.43v-4.51a1.25,1.25,0,0,0-.2-.81,1.11,1.11,0,0,0-1-.4,1.55,1.55,0,0,0-1,.35,1.11,1.11,0,0,0-.4.91v4.46a2,2,0,0,0,.05.43h-1.46a2,2,0,0,0,0-.43V700a1.73,1.73,0,0,0,0-.42h1.39Zm-5.94-.37a1.43,1.43,0,0,0-.71.19,1.5,1.5,0,0,0-.53.53,4.36,4.36,0,0,0-.53,2.29,4.52,4.52,0,0,0,.53,2.35,1.49,1.49,0,0,0,.54.52,1.33,1.33,0,0,0,1.4,0,1.39,1.39,0,0,0,.53-.52,5.28,5.28,0,0,0,0-4.65,1.39,1.39,0,0,0-1.23-.71m0-.59a2.92,2.92,0,0,1,2.4,1,3.91,3.91,0,0,1,.81,2.58,3.75,3.75,0,0,1-.93,2.7,2.93,2.93,0,0,1-2.27.92,2.89,2.89,0,0,1-2.35-1,4.14,4.14,0,0,1-.85-2.72,3.72,3.72,0,0,1,.84-2.52,3,3,0,0,1,2.35-1m-4.08,6.75a8.94,8.94,0,0,1-1.1.42,3.44,3.44,0,0,1-.86.08,2.88,2.88,0,0,1-2.28-.91,3.83,3.83,0,0,1-.86-2.62,3.77,3.77,0,0,1,1.09-2.89,3.3,3.3,0,0,1,2.34-.83,5.52,5.52,0,0,1,1.67.3v1a3.94,3.94,0,0,0-.83-.53,2,2,0,0,0-.76-.14,1.69,1.69,0,0,0-1.48.79,3.78,3.78,0,0,0-.56,2.19,4.13,4.13,0,0,0,.43,2,1.63,1.63,0,0,0,1.53.92,1.9,1.9,0,0,0,.83-.17,3.46,3.46,0,0,0,.84-.57Z" transform="translate(-239.79 -636.82)"></path><path class="cls-3" d="M679.61,700.11a1.29,1.29,0,0,0-.94.4A3.52,3.52,0,0,0,678,703c0,1.83.52,2.75,1.54,2.75a1.34,1.34,0,0,0,1.22-.72,4.51,4.51,0,0,0,.41-2.14c0-1.83-.52-2.76-1.56-2.78m1.51,5.37a3.34,3.34,0,0,1-.64.71,2.16,2.16,0,0,1-1.39.43,2.1,2.1,0,0,1-1.86-1,4.78,4.78,0,0,1-.66-2.64,4.44,4.44,0,0,1,.75-2.69,2.27,2.27,0,0,1,1.95-.94,2.39,2.39,0,0,1,1.05.22,2.18,2.18,0,0,1,.78.69v-3a1.44,1.44,0,0,0-.06-.43h1.47a1.49,1.49,0,0,0,0,.43v8.75a1.54,1.54,0,0,0,0,.43h-1.39Zm-7.3,1v-1a2.83,2.83,0,0,1-.72.74,2.51,2.51,0,0,1-1.37.34A2.23,2.23,0,0,1,670,706a2.12,2.12,0,0,1-.5-1.51V700a1.47,1.47,0,0,0,0-.42h1.46a1.73,1.73,0,0,0,0,.42v4.37a1.42,1.42,0,0,0,.27.9,1.28,1.28,0,0,0,1.05.42,1.62,1.62,0,0,0,1.15-.41,1.35,1.35,0,0,0,.44-1.06V700a1.42,1.42,0,0,0,0-.42h1.46a1.61,1.61,0,0,0-.05.42v6.11a2.18,2.18,0,0,0,.05.43Zm-6-9.61a1.75,1.75,0,0,0,0,.43v8.75a2,2,0,0,0,0,.43h-1.46a2,2,0,0,0,0-.43v-8.75a1.88,1.88,0,0,0,0-.43Zm-4.58,5.46a3.27,3.27,0,0,1-.38.19l-1,.4a2.05,2.05,0,0,0-1,.66,1.62,1.62,0,0,0-.28.9,1.25,1.25,0,0,0,.31.89,1.08,1.08,0,0,0,.82.33,1.44,1.44,0,0,0,1.26-.66,1.52,1.52,0,0,0,.28-.9Zm0,3.21a3.19,3.19,0,0,1-.76.71,2.79,2.79,0,0,1-1.39.35,1.74,1.74,0,0,1-1.29-.47,2,2,0,0,1-.6-1.52,1.88,1.88,0,0,1,.85-1.69,3.31,3.31,0,0,1,.71-.38c.23-.09.74-.25,1.52-.49a1.61,1.61,0,0,0,.71-.37.8.8,0,0,0,.2-.59.87.87,0,0,0-.35-.72,1.39,1.39,0,0,0-.91-.28,2.33,2.33,0,0,0-.87.15,4.62,4.62,0,0,0-.94.58l-.22-.88a6,6,0,0,1,1.22-.46,5.26,5.26,0,0,1,1.18-.13,2.82,2.82,0,0,1,1.67.43,1.37,1.37,0,0,1,.58,1.19v4.13c0,.4.14.6.41.6a.85.85,0,0,0,.46-.22v.77a1.84,1.84,0,0,1-1,.35,1.11,1.11,0,0,1-.76-.23,1.6,1.6,0,0,1-.39-.83m-9.57.47.23-.95a4.53,4.53,0,0,0,1,.68,2.33,2.33,0,0,0,1,.19,1.34,1.34,0,0,0,1-.37,1.13,1.13,0,0,0,.33-.79.82.82,0,0,0-.32-.7,5.56,5.56,0,0,0-1.37-.68,2.92,2.92,0,0,1-1.38-.92,1.91,1.91,0,0,1,.6-2.71,2.89,2.89,0,0,1,1.55-.41,5.23,5.23,0,0,1,2.06.47l-.23.86a2.91,2.91,0,0,0-1.7-.66,1.34,1.34,0,0,0-.91.29,1,1,0,0,0-.37.78.77.77,0,0,0,.27.62,4.77,4.77,0,0,0,1.19.58,4.15,4.15,0,0,1,1.51.88,1.71,1.71,0,0,1,.42,1.21,2,2,0,0,1-.83,1.71,3,3,0,0,1-1.84.51,4.63,4.63,0,0,1-2.23-.59m-6.24-3.68a4.17,4.17,0,0,1-.39.19l-1,.4a2.05,2.05,0,0,0-1,.66,1.55,1.55,0,0,0-.28.9,1.25,1.25,0,0,0,.31.89,1.08,1.08,0,0,0,.82.33,1.45,1.45,0,0,0,1.26-.66,1.53,1.53,0,0,0,.29-.9Zm0,3.21a3.19,3.19,0,0,1-.76.71,2.79,2.79,0,0,1-1.39.35,1.74,1.74,0,0,1-1.29-.47,2,2,0,0,1-.6-1.52,1.88,1.88,0,0,1,.85-1.69,3.15,3.15,0,0,1,.72-.38c.21-.09.72-.25,1.51-.49a1.51,1.51,0,0,0,.7-.37.81.81,0,0,0,.22-.59.88.88,0,0,0-.36-.72,1.4,1.4,0,0,0-.92-.28,2.31,2.31,0,0,0-.86.15,4.91,4.91,0,0,0-.94.58l-.22-.88a5.81,5.81,0,0,1,1.23-.46,5.13,5.13,0,0,1,1.18-.13,2.83,2.83,0,0,1,1.66.43,1.37,1.37,0,0,1,.58,1.19v4.13c0,.4.14.6.41.6a.88.88,0,0,0,.46-.22v.77a1.87,1.87,0,0,1-1,.35,1.11,1.11,0,0,1-.76-.23,1.6,1.6,0,0,1-.39-.83m-5.17-8.67a1.75,1.75,0,0,0-.05.43v8.75a2,2,0,0,0,.05.43h-1.46a2,2,0,0,0,0-.43v-8.75a1.88,1.88,0,0,0,0-.43Zm-12.52,2.65h1.39v1a2.7,2.7,0,0,1,.63-.72,2.62,2.62,0,0,1,1.51-.42,2.24,2.24,0,0,1,1.8.73,2,2,0,0,1,.39,1.29v4.68a2.1,2.1,0,0,0,.05.43h-1.46a1.63,1.63,0,0,0,0-.43v-4.48a1.21,1.21,0,0,0-.34-.91,1.41,1.41,0,0,0-1-.33,1.56,1.56,0,0,0-1.2.44,1.76,1.76,0,0,0-.42,1.21v4.07a1.54,1.54,0,0,0,0,.43h-1.46a1.88,1.88,0,0,0,0-.43V700a1.93,1.93,0,0,0,0-.42m-4.55.42a1.4,1.4,0,0,0-.71.19,1.5,1.5,0,0,0-.53.53,4.27,4.27,0,0,0-.53,2.29,4.52,4.52,0,0,0,.53,2.35,1.55,1.55,0,0,0,.53.52,1.32,1.32,0,0,0,.71.2,1.25,1.25,0,0,0,.69-.2,1.35,1.35,0,0,0,.54-.52,5.28,5.28,0,0,0,0-4.65,1.39,1.39,0,0,0-1.23-.71m0-.59a2.92,2.92,0,0,1,2.4,1,3.93,3.93,0,0,1,.81,2.58,3.75,3.75,0,0,1-.93,2.7,2.93,2.93,0,0,1-2.27.92,2.89,2.89,0,0,1-2.35-1,4.12,4.12,0,0,1-.86-2.72,3.73,3.73,0,0,1,.85-2.52,3,3,0,0,1,2.35-1m-4.08,6.75a9.61,9.61,0,0,1-1.1.42,3.47,3.47,0,0,1-.87.08,2.87,2.87,0,0,1-2.27-.91,3.83,3.83,0,0,1-.86-2.62,3.77,3.77,0,0,1,1.09-2.89,3.29,3.29,0,0,1,2.33-.83,5.52,5.52,0,0,1,1.68.3v1a3.37,3.37,0,0,0-.83-.53,2,2,0,0,0-.76-.14,1.68,1.68,0,0,0-1.48.79,3.78,3.78,0,0,0-.56,2.19,4.25,4.25,0,0,0,.42,2,1.63,1.63,0,0,0,1.54.92,1.93,1.93,0,0,0,.83-.17,3.66,3.66,0,0,0,.84-.57ZM606.7,706l.24-.95a4.3,4.3,0,0,0,1,.68,2.4,2.4,0,0,0,1,.19,1.35,1.35,0,0,0,1-.37,1.09,1.09,0,0,0,.33-.79.82.82,0,0,0-.32-.7,5.56,5.56,0,0,0-1.37-.68,3,3,0,0,1-1.38-.92,1.91,1.91,0,0,1,.6-2.71,2.89,2.89,0,0,1,1.55-.41,5.28,5.28,0,0,1,2.07.47l-.23.86a3,3,0,0,0-1.71-.66,1.36,1.36,0,0,0-.91.29,1,1,0,0,0-.37.78.77.77,0,0,0,.27.62,4.71,4.71,0,0,0,1.2.58,4.18,4.18,0,0,1,1.5.88,1.71,1.71,0,0,1,.42,1.21,2,2,0,0,1-.82,1.71,3.05,3.05,0,0,1-1.85.51,4.63,4.63,0,0,1-2.23-.59m-4-6.07a1.39,1.39,0,0,0-.7.19,1.52,1.52,0,0,0-.54.53,4.36,4.36,0,0,0-.53,2.29,4.42,4.42,0,0,0,.54,2.35,1.39,1.39,0,0,0,.53.52,1.31,1.31,0,0,0,.7.2,1.29,1.29,0,0,0,.7-.2,1.42,1.42,0,0,0,.54-.52,5.36,5.36,0,0,0,0-4.65,1.41,1.41,0,0,0-1.24-.71m0-.59a2.9,2.9,0,0,1,2.39,1,3.93,3.93,0,0,1,.81,2.58,3.79,3.79,0,0,1-.92,2.7,3,3,0,0,1-2.27.92,2.89,2.89,0,0,1-2.35-1,4.07,4.07,0,0,1-.86-2.72,3.72,3.72,0,0,1,.84-2.52,3,3,0,0,1,2.36-1m-7.44.74a1.31,1.31,0,0,0-1,.4,3.57,3.57,0,0,0-.66,2.49c0,1.83.51,2.75,1.54,2.75a1.31,1.31,0,0,0,1.21-.72,4.51,4.51,0,0,0,.41-2.14c0-1.83-.51-2.76-1.55-2.78m1.5,5.37a3.09,3.09,0,0,1-.63.71,2.18,2.18,0,0,1-1.39.43,2.08,2.08,0,0,1-1.86-1,4.78,4.78,0,0,1-.66-2.64,4.44,4.44,0,0,1,.75-2.69,2.27,2.27,0,0,1,2-.94,2.32,2.32,0,0,1,1,.22,2.2,2.2,0,0,1,.79.69v-3a1.44,1.44,0,0,0-.06-.43h1.47a1.49,1.49,0,0,0,0,.43v8.75a1.54,1.54,0,0,0,0,.43h-1.4Zm-7.48-5.94h1.46a2,2,0,0,0-.05.43v6.1a2,2,0,0,0,.05.43h-1.46a1.94,1.94,0,0,0,.06-.43V700a1.86,1.86,0,0,0-.06-.43m.75-1.88a1,1,0,0,1,.63.16.54.54,0,0,1,.22.45.55.55,0,0,1-.22.48,1,1,0,0,1-.61.17q-.87,0-.87-.63a.55.55,0,0,1,.24-.46,1,1,0,0,1,.61-.17m-4.46,2.53h-1v-.65h1v-1.35l1.38-.15q0,.39,0,.51v1H588v.65h-1.13v5c0,.41.18.62.52.62a1.37,1.37,0,0,0,.62-.21v.72a2.63,2.63,0,0,1-1.16.27,1.35,1.35,0,0,1-1-.33,1.46,1.46,0,0,1-.32-1Zm-6.16,2h3.31a5,5,0,0,0-.16-1,1.89,1.89,0,0,0-.6-.9,1.38,1.38,0,0,0-.85-.28,1.41,1.41,0,0,0-1.15.57,3,3,0,0,0-.55,1.58M583.8,706a6.28,6.28,0,0,1-1.18.46,5.26,5.26,0,0,1-1.19.12,3.42,3.42,0,0,1-2.7-1,3.67,3.67,0,0,1-.82-2.53,3.88,3.88,0,0,1,.94-2.76,3,3,0,0,1,2.29-.92,2.77,2.77,0,0,1,2.17.88,4,4,0,0,1,.83,2.52h-4.81a5.41,5.41,0,0,0,.25,1.83,2,2,0,0,0,2,1.36,3,3,0,0,0,2-.81Zm-15.27-5.71a2.4,2.4,0,0,1,2-1,2.47,2.47,0,0,1,1.13.23,1.94,1.94,0,0,1,.75.73,3.12,3.12,0,0,1,1-.74,2.71,2.71,0,0,1,1.13-.22,1.75,1.75,0,0,1,2,2v4.74a2,2,0,0,0,0,.43h-1.46a1.54,1.54,0,0,0,0-.43v-4.52a1.45,1.45,0,0,0-.18-.81,1.12,1.12,0,0,0-1-.39,1.51,1.51,0,0,0-1.07.36,1.28,1.28,0,0,0-.38,1v4.35a1.45,1.45,0,0,0,.05.43h-1.46a1.88,1.88,0,0,0,0-.43v-4.52a1.31,1.31,0,0,0-.19-.8,1.15,1.15,0,0,0-1-.4,1.61,1.61,0,0,0-1,.34,1.18,1.18,0,0,0-.4.92v4.46a1.54,1.54,0,0,0,.06.43h-1.47a1.54,1.54,0,0,0,.06-.43V700a1.33,1.33,0,0,0-.06-.42h1.39Zm-5.94-.37a1.37,1.37,0,0,0-.7.19,1.45,1.45,0,0,0-.54.53,4.36,4.36,0,0,0-.53,2.29,4.42,4.42,0,0,0,.54,2.35,1.39,1.39,0,0,0,.53.52,1.32,1.32,0,0,0,1.4,0,1.42,1.42,0,0,0,.54-.52,5.36,5.36,0,0,0,0-4.65,1.42,1.42,0,0,0-1.24-.71m0-.59a2.92,2.92,0,0,1,2.4,1,4,4,0,0,1,.8,2.58,3.79,3.79,0,0,1-.92,2.7,2.93,2.93,0,0,1-2.27.92,2.87,2.87,0,0,1-2.35-1,4.12,4.12,0,0,1-.86-2.72,3.68,3.68,0,0,1,.85-2.52,3,3,0,0,1,2.35-1" transform="translate(-239.79 -636.82)"></path></g><polygon class="cls-4" points="45.37 13.3 23.12 18.44 32.24 30.75 45.37 13.3"></polygon><g class="cls-5"><path class="cls-4" d="M244.79,659.45l-2.73.63c-1.86.36-2.85,2-1.92,3.16l3.46,4.81c0-.11,0-.23.05-.34q.56-4,1.14-8.26" transform="translate(-239.79 -636.82)"></path><path class="cls-4" d="M293,664.19q-.39-4.11-1.5-13.52l-20.79,28.6h-.79l-15.69-22-5.64,1.31c-.13,1.16-.26,2.25-.37,3.24-.35,2.95-.67,5.89-1,8.81-.08.69-.15,1.4-.22,2.13L272.33,708a3.76,3.76,0,0,0,6,.37l17.1-17.65q-.53-6.66-1.27-14.3-.8-8.15-1.19-12.25" transform="translate(-239.79 -636.82)"></path><path class="cls-4" d="M342.6,636.82l-45.09,10.43q2,18,4.43,36.78l41.86-43.19c1.51-.92,1-4.18-1.2-4" transform="translate(-239.79 -636.82)"></path></g></svg>